<mxfile host="app.diagrams.net" agent="Mozilla/5.0 (Windows NT 10.0; Win64; x64) AppleWebKit/537.36 (KHTML, like Gecko) Chrome/137.0.0.0 Safari/537.36" version="26.2.13">
  <diagram name="Página-1" id="zxnRzTs2vO4sRoWLMfet">
    <mxGraphModel dx="1974" dy="865" grid="1" gridSize="10" guides="1" tooltips="1" connect="1" arrows="1" fold="1" page="1" pageScale="1" pageWidth="827" pageHeight="1169" math="0" shadow="0" adaptiveColors="simple">
      <root>
        <mxCell id="0" />
        <mxCell id="1" parent="0" />
        <mxCell id="zPyy5waIJQapZlA8XViJ-1" value="Persona" style="rounded=0;whiteSpace=wrap;html=1;labelBackgroundColor=none;" vertex="1" parent="1">
          <mxGeometry x="350" y="260" width="90" height="30" as="geometry" />
        </mxCell>
        <mxCell id="zPyy5waIJQapZlA8XViJ-4" value="" style="group;rounded=0;labelBackgroundColor=none;" vertex="1" connectable="0" parent="1">
          <mxGeometry x="355" y="340" width="80" height="50" as="geometry" />
        </mxCell>
        <mxCell id="zPyy5waIJQapZlA8XViJ-2" value="" style="ellipse;whiteSpace=wrap;html=1;rounded=0;labelBackgroundColor=none;" vertex="1" parent="zPyy5waIJQapZlA8XViJ-4">
          <mxGeometry width="80" height="50" as="geometry" />
        </mxCell>
        <mxCell id="zPyy5waIJQapZlA8XViJ-3" value="Equipos" style="ellipse;whiteSpace=wrap;html=1;rounded=0;labelBackgroundColor=none;" vertex="1" parent="zPyy5waIJQapZlA8XViJ-4">
          <mxGeometry x="3.3333333333333335" y="3.125" width="73.33333333333333" height="43.75" as="geometry" />
        </mxCell>
        <mxCell id="zPyy5waIJQapZlA8XViJ-5" value="&lt;u&gt;Pasaporte&lt;/u&gt;" style="ellipse;whiteSpace=wrap;html=1;rounded=0;labelBackgroundColor=none;" vertex="1" parent="1">
          <mxGeometry x="220" y="250" width="80" height="50" as="geometry" />
        </mxCell>
        <mxCell id="zPyy5waIJQapZlA8XViJ-6" value="Nombre" style="ellipse;whiteSpace=wrap;html=1;rounded=0;labelBackgroundColor=none;" vertex="1" parent="1">
          <mxGeometry x="355" y="180" width="80" height="40" as="geometry" />
        </mxCell>
        <mxCell id="zPyy5waIJQapZlA8XViJ-7" value="Dirección" style="ellipse;whiteSpace=wrap;html=1;rounded=0;labelBackgroundColor=none;" vertex="1" parent="1">
          <mxGeometry x="470" y="260" width="80" height="30" as="geometry" />
        </mxCell>
        <mxCell id="zPyy5waIJQapZlA8XViJ-8" value="Calle" style="ellipse;whiteSpace=wrap;html=1;rounded=0;labelBackgroundColor=none;" vertex="1" parent="1">
          <mxGeometry x="580" y="200" width="80" height="30" as="geometry" />
        </mxCell>
        <mxCell id="zPyy5waIJQapZlA8XViJ-10" value="Número" style="ellipse;whiteSpace=wrap;html=1;rounded=0;labelBackgroundColor=none;" vertex="1" parent="1">
          <mxGeometry x="580" y="240" width="80" height="30" as="geometry" />
        </mxCell>
        <mxCell id="zPyy5waIJQapZlA8XViJ-11" value="" style="endArrow=none;html=1;rounded=0;entryX=0;entryY=0.5;entryDx=0;entryDy=0;exitX=0.733;exitY=0.057;exitDx=0;exitDy=0;exitPerimeter=0;labelBackgroundColor=none;fontColor=default;" edge="1" parent="1" source="zPyy5waIJQapZlA8XViJ-7" target="zPyy5waIJQapZlA8XViJ-8">
          <mxGeometry width="50" height="50" relative="1" as="geometry">
            <mxPoint x="530" y="260" as="sourcePoint" />
            <mxPoint x="580" y="210" as="targetPoint" />
          </mxGeometry>
        </mxCell>
        <mxCell id="zPyy5waIJQapZlA8XViJ-12" value="Localidad" style="ellipse;whiteSpace=wrap;html=1;rounded=0;labelBackgroundColor=none;" vertex="1" parent="1">
          <mxGeometry x="580" y="280" width="80" height="30" as="geometry" />
        </mxCell>
        <mxCell id="zPyy5waIJQapZlA8XViJ-13" value="País" style="ellipse;whiteSpace=wrap;html=1;rounded=0;labelBackgroundColor=none;" vertex="1" parent="1">
          <mxGeometry x="580" y="320" width="80" height="30" as="geometry" />
        </mxCell>
        <mxCell id="zPyy5waIJQapZlA8XViJ-14" value="" style="endArrow=none;html=1;rounded=0;entryX=0;entryY=0.5;entryDx=0;entryDy=0;exitX=0.963;exitY=0.298;exitDx=0;exitDy=0;exitPerimeter=0;labelBackgroundColor=none;fontColor=default;" edge="1" parent="1" source="zPyy5waIJQapZlA8XViJ-7" target="zPyy5waIJQapZlA8XViJ-10">
          <mxGeometry width="50" height="50" relative="1" as="geometry">
            <mxPoint x="539" y="272" as="sourcePoint" />
            <mxPoint x="590" y="225" as="targetPoint" />
          </mxGeometry>
        </mxCell>
        <mxCell id="zPyy5waIJQapZlA8XViJ-15" value="" style="endArrow=none;html=1;rounded=0;entryX=0;entryY=0.5;entryDx=0;entryDy=0;exitX=0.958;exitY=0.689;exitDx=0;exitDy=0;exitPerimeter=0;labelBackgroundColor=none;fontColor=default;" edge="1" parent="1" source="zPyy5waIJQapZlA8XViJ-7" target="zPyy5waIJQapZlA8XViJ-12">
          <mxGeometry width="50" height="50" relative="1" as="geometry">
            <mxPoint x="549" y="282" as="sourcePoint" />
            <mxPoint x="600" y="235" as="targetPoint" />
          </mxGeometry>
        </mxCell>
        <mxCell id="zPyy5waIJQapZlA8XViJ-16" value="" style="endArrow=none;html=1;rounded=0;entryX=0;entryY=0.5;entryDx=0;entryDy=0;exitX=1;exitY=1;exitDx=0;exitDy=0;labelBackgroundColor=none;fontColor=default;" edge="1" parent="1" source="zPyy5waIJQapZlA8XViJ-7" target="zPyy5waIJQapZlA8XViJ-13">
          <mxGeometry width="50" height="50" relative="1" as="geometry">
            <mxPoint x="550" y="310" as="sourcePoint" />
            <mxPoint x="601" y="263" as="targetPoint" />
          </mxGeometry>
        </mxCell>
        <mxCell id="zPyy5waIJQapZlA8XViJ-17" value="" style="endArrow=none;html=1;rounded=0;entryX=0;entryY=0.5;entryDx=0;entryDy=0;exitX=1;exitY=0.5;exitDx=0;exitDy=0;labelBackgroundColor=none;fontColor=default;" edge="1" parent="1" source="zPyy5waIJQapZlA8XViJ-1" target="zPyy5waIJQapZlA8XViJ-7">
          <mxGeometry width="50" height="50" relative="1" as="geometry">
            <mxPoint x="569" y="302" as="sourcePoint" />
            <mxPoint x="620" y="255" as="targetPoint" />
          </mxGeometry>
        </mxCell>
        <mxCell id="zPyy5waIJQapZlA8XViJ-18" value="" style="endArrow=none;html=1;rounded=0;entryX=0.5;entryY=0;entryDx=0;entryDy=0;exitX=0.5;exitY=1;exitDx=0;exitDy=0;labelBackgroundColor=none;fontColor=default;" edge="1" parent="1" source="zPyy5waIJQapZlA8XViJ-1" target="zPyy5waIJQapZlA8XViJ-2">
          <mxGeometry width="50" height="50" relative="1" as="geometry">
            <mxPoint x="579" y="312" as="sourcePoint" />
            <mxPoint x="630" y="265" as="targetPoint" />
          </mxGeometry>
        </mxCell>
        <mxCell id="zPyy5waIJQapZlA8XViJ-19" value="" style="endArrow=none;html=1;rounded=0;entryX=0.5;entryY=0;entryDx=0;entryDy=0;exitX=0.5;exitY=1;exitDx=0;exitDy=0;labelBackgroundColor=none;fontColor=default;" edge="1" parent="1" source="zPyy5waIJQapZlA8XViJ-6" target="zPyy5waIJQapZlA8XViJ-1">
          <mxGeometry width="50" height="50" relative="1" as="geometry">
            <mxPoint x="390" y="210" as="sourcePoint" />
            <mxPoint x="390" y="260" as="targetPoint" />
          </mxGeometry>
        </mxCell>
        <mxCell id="zPyy5waIJQapZlA8XViJ-20" value="" style="endArrow=none;html=1;rounded=0;entryX=0;entryY=0.5;entryDx=0;entryDy=0;exitX=1;exitY=0.5;exitDx=0;exitDy=0;labelBackgroundColor=none;fontColor=default;" edge="1" parent="1" source="zPyy5waIJQapZlA8XViJ-5" target="zPyy5waIJQapZlA8XViJ-1">
          <mxGeometry width="50" height="50" relative="1" as="geometry">
            <mxPoint x="405" y="230" as="sourcePoint" />
            <mxPoint x="405" y="270" as="targetPoint" />
          </mxGeometry>
        </mxCell>
      </root>
    </mxGraphModel>
  </diagram>
</mxfile>
